HIERARCHY
ROOT Hips
{
	OFFSET 0.000000 0.000000 0.000000
	CHANNELS 6 Xposition Yposition Zposition Zrotation Yrotation Xrotation 
	JOINT LHipJoint
	{
		OFFSET 0.000000 0.000000 0.000000
		CHANNELS 3 Zrotation Yrotation Xrotation
		JOINT LeftUpLeg
		{
			OFFSET 1.363060 -1.794630 0.839290
			CHANNELS 3 Zrotation Yrotation Xrotation
			JOINT LeftLeg
			{
				OFFSET 2.448110 -6.726130 0.000000
				CHANNELS 3 Zrotation Yrotation Xrotation
				JOINT LeftFoot
				{
					OFFSET 2.562200 -7.039590 0.000000
					CHANNELS 3 Zrotation Yrotation Xrotation
					JOINT LeftToeBase
					{
						OFFSET 0.157640 -0.433110 2.322550
						CHANNELS 3 Zrotation Yrotation Xrotation
						End Site
						{
							OFFSET 0.000000 0.000000 0.000000
						}
					}
				}
			}
		}
	}
	JOINT RHipJoint
	{
		OFFSET 0.000000 0.000000 0.000000
		CHANNELS 3 Zrotation Yrotation Xrotation
		JOINT RightUpLeg
		{
			OFFSET -1.305520 -1.794630 0.839290
			CHANNELS 3 Zrotation Yrotation Xrotation
			JOINT RightLeg
			{
				OFFSET -2.542530 -6.985550 0.000000
				CHANNELS 3 Zrotation Yrotation Xrotation
				JOINT RightFoot
				{
					OFFSET -2.568260 -7.056230 0.000000
					CHANNELS 3 Zrotation Yrotation Xrotation
					JOINT RightToeBase
					{
						OFFSET -0.164730 -0.452590 2.363150
						CHANNELS 3 Zrotation Yrotation Xrotation
						End Site
						{
							OFFSET 0.000000 0.000000 0.000000
						}
					}
				}
			}
		}
	}
	JOINT LowerBack
	{
		OFFSET 0.000000 0.000000 0.000000
		CHANNELS 3 Zrotation Yrotation Xrotation
		JOINT Spine
		{
			OFFSET 0.028270 2.035590 -0.193380
			CHANNELS 3 Zrotation Yrotation Xrotation
			JOINT Spine1
			{
				OFFSET 0.056720 2.048850 -0.042750
				CHANNELS 3 Zrotation Yrotation Xrotation
				JOINT Neck
				{
					OFFSET 0.000000 0.000000 0.000000
					CHANNELS 3 Zrotation Yrotation Xrotation
					JOINT Neck1
					{
						OFFSET -0.054170 1.746240 0.172020
						CHANNELS 3 Zrotation Yrotation Xrotation
						JOINT Head
						{
							OFFSET 0.104070 1.761360 -0.123970
							CHANNELS 3 Zrotation Yrotation Xrotation
							End Site
							{
								OFFSET 0.000000 0.000000 0.000000
							}
						}
					}
				}
				JOINT LeftShoulder
				{
					OFFSET 0.000000 0.000000 0.000000
					CHANNELS 3 Zrotation Yrotation Xrotation
					JOINT LeftArm
					{
						OFFSET 3.362410 1.200890 -0.311210
						CHANNELS 3 Zrotation Yrotation Xrotation
						JOINT LeftForeArm
						{
							OFFSET 4.983000 -0.000000 -0.000000
							CHANNELS 3 Zrotation Yrotation Xrotation
							JOINT LeftHand
							{
								OFFSET 3.483560 -0.000000 -0.000000
								CHANNELS 3 Zrotation Yrotation Xrotation
								JOINT LeftFingerBase
								{
									OFFSET 0.000000 0.000000 0.000000
									CHANNELS 3 Zrotation Yrotation Xrotation
									JOINT LeftHandIndex1
									{
										OFFSET 0.715260 -0.000000 -0.000000
										CHANNELS 3 Zrotation Yrotation Xrotation
										End Site
										{
											OFFSET 0.000000 0.000000 0.000000
										}
									}
								}
								JOINT LThumb
								{
									OFFSET 0.000000 0.000000 0.000000
									CHANNELS 3 Zrotation Yrotation Xrotation
									End Site
									{
										OFFSET 0.000000 0.000000 0.000000
									}
								}
							}
						}
					}
				}
				JOINT RightShoulder
				{
					OFFSET 0.000000 0.000000 0.000000
					CHANNELS 3 Zrotation Yrotation Xrotation
					JOINT RightArm
					{
						OFFSET -3.136600 1.374050 -0.404650
						CHANNELS 3 Zrotation Yrotation Xrotation
						JOINT RightForeArm
						{
							OFFSET -5.241900 -0.000000 -0.000000
							CHANNELS 3 Zrotation Yrotation Xrotation
							JOINT RightHand
							{
								OFFSET -3.444170 -0.000000 -0.000000
								CHANNELS 3 Zrotation Yrotation Xrotation
								JOINT RightFingerBase
								{
									OFFSET 0.000000 0.000000 0.000000
									CHANNELS 3 Zrotation Yrotation Xrotation
									JOINT RightHandIndex1
									{
										OFFSET -0.622530 -0.000000 -0.000000
										CHANNELS 3 Zrotation Yrotation Xrotation
										End Site
										{
											OFFSET 0.000000 0.000000 0.000000
										}
									}
								}
								JOINT RThumb
								{
									OFFSET 0.000000 0.000000 0.000000
									CHANNELS 3 Zrotation Yrotation Xrotation
									End Site
									{
										OFFSET 0.000000 0.000000 0.000000
									}
								}
							}
						}
					}
				}
			}
		}
	}
}
MOTION
Frames: 9
Frame Time: 0.008333
0.380545 17.787556 10.950519 -0.931987 -7.244270 5.317024 -1.953304 3.334039 3.858907 -9.222666 -0.957710 -25.411133 17.315506 19.025064 82.072600 1.182779 -2.343286 24.811968 0.002710 0.049835 0.137049 4.798047 -2.506675 3.198075 23.541051 12.464898 -21.334077 -4.747521 -12.252990 42.686437 3.438548 -10.687461 0.917544 -0.008642 -0.522678 1.436452 0.430777 0.594576 13.645175 2.762421 1.308603 -1.094041 2.591324 0.249900 -8.750571 -5.529968 -3.657501 -16.176766 5.984237 -3.966807 4.914385 0.461937 -1.840689 6.130434 -4.552474 1.458434 -1.051639 -82.589379 15.755142 43.896566 102.638840 -60.750798 -74.892407 -0.480478 -1.106300 -24.800597 29.262459 4.514637 3.124179 -7.125000 0.000000 0.000000 2.925574 36.189192 -0.632116 9.023192 -1.377831 -2.731800 73.744861 -9.593563 48.721530 -105.159883 61.677822 -76.038464 0.723429 -0.588394 -8.937661 -25.220788 33.585801 -15.212743 7.125000 0.000000 0.000000 3.726313 6.960208 4.158497
0.376261 17.785237 11.124730 -0.814654 -7.150987 5.413098 -1.882819 3.237863 3.717505 -9.266785 -1.109219 -26.299998 17.482779 19.126285 82.489700 1.099012 -2.088593 24.360607 0.007530 0.369504 1.015547 4.796940 -2.523936 3.298790 23.385690 12.265787 -20.995705 -4.734300 -12.235151 42.697432 3.364617 -10.527608 0.515555 -0.004726 -0.239235 0.657557 0.344094 0.640953 13.525943 2.727122 1.338002 -1.074350 2.545085 0.276571 -8.624360 -5.474503 -3.680121 -16.291521 6.026241 -4.002224 4.786095 0.464610 -1.856467 6.095903 -4.551173 1.475009 -1.060229 -82.529144 16.102434 43.940738 102.660450 -60.761777 -74.914076 -0.482723 -1.091727 -24.662790 29.037740 4.147406 2.879936 -7.125000 0.000000 0.000000 2.732921 35.741376 -0.618748 9.011507 -1.373370 -2.700928 73.842778 -9.044706 48.781741 -105.514498 61.606824 -76.309315 0.709362 -0.593861 -8.737956 -25.078579 33.466138 -15.071228 7.125000 0.000000 0.000000 3.789539 6.805024 4.220292
0.371977 17.782919 11.298941 -0.697321 -7.057704 5.509172 -1.812334 3.141687 3.576103 -9.310904 -1.260728 -27.188864 17.650052 19.227506 82.906801 1.015245 -1.833901 23.909247 0.012350 0.689174 1.894045 4.795833 -2.541197 3.399505 23.230329 12.066675 -20.657334 -4.721079 -12.217311 42.708428 3.290685 -10.367755 0.113567 -0.000809 0.044209 -0.121338 0.257410 0.687329 13.406710 2.691824 1.367402 -1.054659 2.498846 0.303243 -8.498148 -5.419037 -3.702741 -16.406276 6.068245 -4.037642 4.657804 0.467284 -1.872246 6.061372 -4.549871 1.491584 -1.068820 -82.468909 16.449726 43.984911 102.682060 -60.772756 -74.935745 -0.484969 -1.077154 -24.524984 28.813020 3.780175 2.635693 -7.125000 0.000000 0.000000 2.540268 35.293560 -0.605379 8.999822 -1.368908 -2.670056 73.940695 -8.495849 48.841952 -105.869114 61.535825 -76.580166 0.695295 -0.599328 -8.538251 -24.936369 33.346474 -14.929713 7.125000 0.000000 0.000000 3.852765 6.649840 4.282087
0.365968 17.781430 11.468638 -0.642497 -6.872914 5.592951 -1.735873 3.047268 3.430489 -9.273592 -1.493624 -28.082626 17.778380 19.331340 83.216911 0.938136 -1.649108 23.337503 0.027187 0.995551 2.737277 4.799623 -2.561345 3.516560 23.155761 11.815385 -20.268334 -4.683192 -12.177211 42.651341 3.148454 -10.069938 -0.300445 -0.000200 0.031570 -0.086716 0.226141 0.728384 13.371084 2.672710 1.403386 -1.040700 2.461407 0.331151 -8.428429 -5.397032 -3.741026 -16.582630 6.107693 -4.077052 4.572216 0.474346 -1.889264 6.058639 -4.547752 1.508735 -1.076824 -82.392575 16.779253 44.099888 102.966138 -60.760183 -75.151497 -0.484865 -1.064481 -24.605962 28.656479 3.498340 2.453014 -7.125000 0.000000 0.000000 2.406857 34.948551 -0.593029 8.989268 -1.357847 -2.641984 74.021297 -8.001329 48.873346 -106.305299 61.451187 -76.913680 0.686943 -0.608882 -8.390343 -25.042410 33.340014 -14.993939 7.125000 0.000000 0.000000 3.799447 6.677723 4.224159
0.359641 17.780094 11.637504 -0.599189 -6.671267 5.674465 -1.658311 2.953174 3.284100 -9.221279 -1.741511 -28.977290 17.899534 19.435656 83.507312 0.862252 -1.477192 22.743584 0.043869 1.299480 3.574014 4.804316 -2.582024 3.636626 23.096075 11.554483 -19.870008 -4.640762 -12.133011 42.581713 2.993640 -9.746707 -0.716672 -0.000200 -0.035610 0.097765 0.205081 0.768459 13.350860 2.656577 1.440584 -1.027798 2.425588 0.359287 -8.369118 -5.381191 -3.782197 -16.770331 6.146670 -4.117197 4.494493 0.482216 -1.906511 6.061765 -4.545481 1.525992 -1.084720 -82.313276 17.105508 44.227908 103.298565 -60.743272 -75.403000 -0.484328 -1.052158 -24.727243 28.512497 3.232236 2.281675 -7.125000 0.000000 0.000000 2.284359 34.622480 -0.580866 8.978922 -1.345571 -2.614427 74.098709 -7.516819 48.899432 -106.756510 61.364035 -77.258738 0.679644 -0.619190 -8.251977 -25.194180 33.354407 -15.096065 7.125000 0.000000 0.000000 3.724660 6.739330 4.144175
0.353128 17.779522 11.807313 -0.580852 -6.524952 5.747236 -1.578811 2.864397 3.140980 -9.152282 -1.928668 -29.866545 18.009643 19.542003 83.769441 0.794245 -1.340669 22.131616 0.057642 1.549236 4.261620 4.810222 -2.608768 3.760160 23.062547 11.324680 -19.425677 -4.595420 -12.083016 42.499336 2.829641 -9.404745 -1.122967 -0.001260 -0.140190 0.385079 0.197338 0.827320 13.341313 2.642164 1.504848 -1.021840 2.381481 0.400279 -8.337671 -5.372859 -3.825399 -16.910573 6.193262 -4.163268 4.423145 0.494660 -1.926197 6.060160 -4.542258 1.542674 -1.092878 -82.224840 17.474676 44.364380 103.655960 -60.723847 -75.672808 -0.482899 -1.039670 -24.850782 28.349015 2.980110 2.117442 -7.125000 0.000000 0.000000 2.145317 34.312128 -0.562429 8.969227 -1.334084 -2.589424 74.167064 -7.081920 48.940611 -107.232806 61.272871 -77.621843 0.671398 -0.628374 -8.108961 -25.339190 33.329977 -15.178388 7.125000 0.000000 0.000000 3.646516 6.758273 4.058139
0.345819 17.782234 11.981170 -0.669748 -6.616237 5.782460 -1.490989 2.798451 3.011902 -9.011646 -1.855035 -30.732570 18.072323 19.657070 83.910165 0.760060 -1.356126 21.442148 0.058922 1.566370 4.308841 4.821339 -2.661552 3.898592 23.141347 11.228418 -18.783797 -4.537576 -12.008139 42.362216 2.626202 -8.982355 -1.486612 -0.006871 -0.405369 1.113966 0.246785 0.966853 13.377622 2.635133 1.685342 -1.045704 2.301778 0.496479 -8.425885 -5.396774 -3.877325 -16.847025 6.272554 -4.234782 4.379165 0.526744 -1.956361 6.038244 -4.534944 1.556891 -1.102156 -82.097169 18.028121 44.537149 104.120570 -60.693627 -76.021221 -0.477643 -1.026473 -24.984016 28.101796 2.788010 1.983722 -7.125000 0.000000 0.000000 1.935229 34.069279 -0.517052 8.962322 -1.325982 -2.575387 74.196528 -6.860060 49.046597 -107.816822 61.164474 -78.062447 0.659087 -0.632734 -7.945974 -25.455171 33.138835 -15.175677 7.125000 0.000000 0.000000 3.553956 6.594014 3.946110
0.338510 17.784946 12.155027 -0.758643 -6.707521 5.817685 -1.403168 2.732505 2.882823 -8.871009 -1.781402 -31.598595 18.135003 19.772136 84.050890 0.725876 -1.371583 20.752680 0.060203 1.583504 4.356063 4.832455 -2.714336 4.037024 23.220146 11.132155 -18.141917 -4.479733 -11.933262 42.225095 2.422762 -8.559964 -1.850258 -0.012482 -0.670549 1.842853 0.296232 1.106385 13.413931 2.628103 1.865836 -1.069568 2.222075 0.592680 -8.514098 -5.420689 -3.929251 -16.783476 6.351846 -4.306296 4.335186 0.558828 -1.986524 6.016328 -4.527631 1.571108 -1.111435 -81.969498 18.581565 44.709918 104.585180 -60.663407 -76.369633 -0.472387 -1.013277 -25.117251 27.854576 2.595909 1.850003 -7.125000 0.000000 0.000000 1.725141 33.826430 -0.471676 8.955418 -1.317881 -2.561349 74.225992 -6.638200 49.152583 -108.400837 61.056077 -78.503052 0.646775 -0.637093 -7.782988 -25.571152 32.947694 -15.172965 7.125000 0.000000 0.000000 3.461395 6.429754 3.834080
0.333338 17.789606 12.330078 -0.845813 -6.904844 5.875469 -1.324324 2.679219 2.769863 -8.774768 -1.596509 -32.389366 18.160729 19.877193 84.096456 0.703255 -1.427831 19.978081 0.048750 1.308441 3.599295 4.847101 -2.772098 4.168657 23.260003 11.072798 -17.500235 -4.422054 -11.854429 42.042069 2.332002 -8.359093 -1.859978 -0.017108 -0.429259 1.179619 0.335250 1.272271 13.418985 2.618928 2.079302 -1.102339 2.136227 0.704194 -8.611114 -5.432160 -3.968696 -16.706886 6.408670 -4.365293 4.309415 0.581271 -2.011646 5.998649 -4.518776 1.583485 -1.121752 -81.849526 19.161084 44.855717 105.082526 -60.627260 -76.741080 -0.469330 -1.001375 -25.251423 27.695525 2.428574 1.738977 -7.125000 0.000000 0.000000 1.589885 33.616337 -0.443571 8.949168 -1.311402 -2.549130 74.246462 -6.424476 49.303537 -108.994137 60.939956 -78.948535 0.635451 -0.641507 -7.782634 -25.630372 32.826536 -15.160272 7.125000 0.000000 0.000000 3.414063 6.324742 3.775735
